<svg preserveAspectRatio="none" width="100%" height="100%" overflow="visible" style="display: block;" viewBox="0 0 58.8622 18.1818" fill="none" xmlns="http://www.w3.org/2000/svg">
<g id="Frame 427320767">
<g id="ll">
<path id="Vector 3" d="M17.044 1.81818V16.3636" stroke="var(--stroke-0, #475467)" stroke-width="3.63636" stroke-linecap="square" stroke-linejoin="round"/>
<path id="Vector 4" d="M24.3168 1.81818V16.3636" stroke="var(--stroke-0, #475467)" stroke-width="3.63636" stroke-linecap="square" stroke-linejoin="round"/>
</g>
<g id="a">
<path id="Vector 6" d="M40.3168 6.18182L40.3168 16.3636" stroke="var(--stroke-0, #475467)" stroke-width="3.63636" stroke-linecap="square" stroke-linejoin="round"/>
<path id="Ellipse 7" d="M40.3168 11.2727C40.3168 11.9413 40.1851 12.6033 39.9292 13.2209C39.6734 13.8386 39.2984 14.3998 38.8257 14.8725C38.3529 15.3453 37.7917 15.7203 37.1741 15.9761C36.5564 16.232 35.8944 16.3636 35.2259 16.3636C34.5573 16.3636 33.8953 16.232 33.2776 15.9761C32.66 15.7203 32.0988 15.3453 31.626 14.8725C31.1533 14.3998 30.7783 13.8386 30.5225 13.2209C30.2666 12.6033 30.1349 11.9413 30.1349 11.2727C30.1349 10.6042 30.2666 9.94218 30.5225 9.32452C30.7783 8.70686 31.1533 8.14564 31.626 7.67291C32.0988 7.20018 32.66 6.82518 33.2776 6.56934C33.8953 6.3135 34.5573 6.18182 35.2259 6.18182C35.8944 6.18182 36.5564 6.3135 37.1741 6.56934C37.7917 6.82518 38.3529 7.20018 38.8257 7.67291C39.2984 8.14565 39.6734 8.70686 39.9292 9.32452C40.1851 9.94218 40.3168 10.6042 40.3168 11.2727L40.3168 11.2727Z" stroke="var(--stroke-0, #475467)" stroke-width="3.63636" stroke-linecap="round" stroke-linejoin="round"/>
</g>
<g id="b">
<path id="Vector 5" d="M46.8622 1.81818V16.3636" stroke="var(--stroke-0, #475467)" stroke-width="3.63636" stroke-linecap="square" stroke-linejoin="round"/>
<path id="Ellipse 8" d="M57.044 11.2727C57.044 11.9413 56.9124 12.6033 56.6565 13.2209C56.4007 13.8386 56.0257 14.3998 55.5529 14.8725C55.0802 15.3453 54.519 15.7203 53.9013 15.9761C53.2837 16.232 52.6217 16.3636 51.9531 16.3636C51.2846 16.3636 50.6226 16.232 50.0049 15.9761C49.3873 15.7203 48.826 15.3453 48.3533 14.8725C47.8806 14.3998 47.5056 13.8386 47.2497 13.2209C46.9939 12.6033 46.8622 11.9413 46.8622 11.2727C46.8622 10.6042 46.9939 9.94218 47.2497 9.32452C47.5056 8.70686 47.8806 8.14564 48.3533 7.67291C48.826 7.20018 49.3873 6.82518 50.0049 6.56934C50.6226 6.3135 51.2846 6.18182 51.9531 6.18182C52.6217 6.18182 53.2837 6.3135 53.9013 6.56934C54.519 6.82518 55.0802 7.20018 55.5529 7.67291C56.0257 8.14565 56.4007 8.70686 56.6565 9.32452C56.9124 9.94218 57.044 10.6042 57.044 11.2727L57.044 11.2727Z" stroke="var(--stroke-0, #475467)" stroke-width="3.63636" stroke-linecap="round" stroke-linejoin="round"/>
</g>
<path id="Subtract" d="M6.47461 4.37243C7.2655 4.41139 8.04516 4.58545 8.77832 4.88903L9.08887 5.02672C9.80501 5.36549 10.4581 5.82668 11.0195 6.38805L11.2539 6.63317C11.7859 7.22023 12.2147 7.89576 12.5186 8.62926L12.6406 8.94567C12.9074 9.69152 13.0439 10.479 13.0439 11.2728L13.0352 11.6127C13.0018 12.2905 12.8691 12.9599 12.6406 13.599L12.5186 13.9164C12.2148 14.6498 11.7858 15.3245 11.2539 15.9115L11.0195 16.1576C10.4581 16.7189 9.80501 17.1801 9.08887 17.5189L8.77832 17.6566C8.57348 17.7414 8.36463 17.8148 8.15332 17.8793L5.27832 14.4291C5.55709 14.5047 5.84471 14.5453 6.13477 14.5453L6.45605 14.5297C6.77552 14.4981 7.09003 14.4205 7.3877 14.2972L7.67773 14.1595C7.96103 14.0081 8.22026 13.8142 8.44824 13.5863L8.66406 13.348C8.86763 13.0999 9.03588 12.8233 9.15918 12.5257L9.2666 12.223C9.3288 12.018 9.37056 11.8073 9.3916 11.5941L9.40723 11.2728L9.3916 10.9515C9.37057 10.7383 9.32879 10.5276 9.2666 10.3226L9.15918 10.0199C9.03588 9.72228 8.86763 9.44578 8.66406 9.19762L8.44824 8.95836C8.22038 8.7306 7.96084 8.53743 7.67773 8.3861L7.3877 8.2484C7.09003 8.12513 6.77551 8.0475 6.45605 8.01598L6.13477 8.00036C5.81236 8.00038 5.49198 8.04772 5.18457 8.14098L4.88184 8.2484C4.58439 8.37165 4.30762 8.53911 4.05957 8.74254L3.82031 8.95836C3.59234 9.18636 3.39948 9.44653 3.24805 9.72985L3.11035 10.0199C2.94592 10.4169 2.8623 10.8431 2.8623 11.2728L2.875 11.5443L0 8.09411C0.325949 7.46564 0.74772 6.89036 1.25 6.38805L1.49512 6.15368C2.08214 5.62171 2.75776 5.19286 3.49121 4.88903L3.80762 4.76696C4.55338 4.50024 5.34105 4.36367 6.13477 4.36364L6.47461 4.37243Z" fill="var(--fill-0, #475467)"/>
</g>
</svg>
