<svg preserveAspectRatio="none" width="100%" height="100%" overflow="visible" style="display: block;" viewBox="0 0 16.6667 16.6667" fill="none" xmlns="http://www.w3.org/2000/svg">
<path id="Icon (Stroke)" fill-rule="evenodd" clip-rule="evenodd" d="M7.91667 1.66667C4.46489 1.66667 1.66667 4.46489 1.66667 7.91667C1.66667 11.3684 4.46489 14.1667 7.91667 14.1667C9.59425 14.1667 11.1175 13.5057 12.2401 12.43C12.266 12.3941 12.2952 12.3597 12.3275 12.3274C12.3598 12.2951 12.3942 12.2659 12.4301 12.24C13.5058 11.1174 14.1667 9.59421 14.1667 7.91667C14.1667 4.46489 11.3684 1.66667 7.91667 1.66667ZM14.073 12.8944C15.1739 11.5345 15.8333 9.80261 15.8333 7.91667C15.8333 3.54441 12.2889 0 7.91667 0C3.54441 0 0 3.54441 0 7.91667C0 12.2889 3.54441 15.8333 7.91667 15.8333C9.80264 15.8333 11.5346 15.1739 12.8945 14.0729L15.2441 16.4226C15.5695 16.748 16.0971 16.748 16.4226 16.4226C16.748 16.0972 16.748 15.5695 16.4226 15.2441L14.073 12.8944Z" fill="var(--fill-0, #98A2B3)"/>
</svg>
